/vscmnt/brussel_pixiu_data/_data_brussel/112/vsc11236/PredSimResults/SUBJ04opt3D/weighted/trackIG/worker_05.mot
version=1
nRows=5
nColumns=50
inDegrees=yes
endheader
                time	         pelvis_tilt	         pelvis_list	     pelvis_rotation	           pelvis_tx	           pelvis_ty	           pelvis_tz	       hip_flexion_r	     hip_adduction_r	      hip_rotation_r	        knee_angle_r	       ankle_angle_r	         mtp_angle_r	       hip_flexion_l	     hip_adduction_l	      hip_rotation_l	        knee_angle_l	       ankle_angle_l	         mtp_angle_l	    lumbar_extension	      lumbar_bending	     lumbar_rotation	 ercspn_r/activation	 intobl_r/activation	 extobl_r/activation	    abd_r/activation	    add_r/activation	hamstrings_r/activation	bifemsh_r/activation	glut_max_r/activation	iliopsoas_r/activation	rect_fem_r/activation	  vasti_r/activation	gastroc_r/activation	 soleus_r/activation	tib_ant_r/activation	 ercspn_l/activation	 intobl_l/activation	 extobl_l/activation	    abd_l/activation	    add_l/activation	hamstrings_l/activation	bifemsh_l/activation	glut_max_l/activation	iliopsoas_l/activation	rect_fem_l/activation	  vasti_l/activation	gastroc_l/activation	 soleus_l/activation	tib_ant_l/activation	
          0.00000000	         -1.20443151	          0.36552131	          6.89531056	          0.00000000	          0.88543670	         -0.00901627	         27.43428816	         -2.25498540	         -6.32460732	         -9.39857414	          3.98407578	          0.23511474	        -11.92236347	          0.17191146	         -5.79968503	         -6.25748338	         14.50289048	         16.65045414	        -14.24402699	         -4.49583057	         -8.14334793	          0.05683575	          0.24448883	          0.02231856	          0.00999999	          0.26217166	          0.06312155	          0.03638503	          0.01221957	          0.18779521	          0.03761354	          0.04992995	          0.00999999	          0.00999999	          0.34281970	          0.00999999	          0.00999999	          0.00999999	          0.09070293	          0.00999999	          0.03056808	          0.35060400	          0.01993496	          0.01842509	          0.00999999	          0.00999999	          0.28535317	          0.24573465	          0.01493182	
          0.01331752	         -1.30941411	          0.36607860	          6.65101209	          0.01468524	          0.88301391	         -0.00853221	         27.58294324	         -2.02332299	         -6.24786746	        -10.95010806	          3.83635421	          0.23281096	        -12.60338336	          0.10825470	         -6.44071380	         -6.72418980	         14.50494891	         17.94416590	        -13.75639479	         -3.85568172	         -8.27763775	          0.04651201	          0.22559240	          0.01826458	          0.00999999	          0.35949107	          0.06837133	          0.02977599	          0.00999999	          0.15368376	          0.03078135	          0.04086059	          0.01493182	          0.01824606	          0.33048210	          0.03016443	          0.00999999	          0.00999999	          0.07422749	          0.00999999	          0.02501564	          0.34431460	          0.01631394	          0.01824606	          0.01000000	          0.00999999	          0.28625701	          0.25919513	          0.01221957	
          0.02663504	         -1.39896220	          0.30903112	          6.37316816	          0.02983338	          0.88067437	         -0.00802391	         27.62977843	         -1.78725263	         -6.04809348	        -12.58298181	          3.67621932	          0.22431252	        -13.24537062	         -0.01629535	         -7.12348145	         -7.34335978	         14.44003036	         19.33222992	        -13.22255459	         -3.12356387	         -8.38728978	          0.03806349	          0.22733485	          0.01494697	          0.00999999	          0.29419249	          0.07818995	          0.02436743	          0.01451549	          0.12576838	          0.02519017	          0.03343860	          0.01221958	          0.01493182	          0.34914607	          0.02468531	          0.00999999	          0.00999999	          0.06074468	          0.00999999	          0.04446493	          0.31542514	          0.01402535	          0.01493181	          0.00999999	          0.00999999	          0.27652557	          0.26609337	          0.00999999	
          0.03995256	         -1.47466948	          0.17950971	          6.05510233	          0.04526922	          0.87856531	         -0.00743090	         27.59954830	         -1.49788801	         -5.93201166	        -14.06372274	          3.31291250	          0.21374929	        -13.79106847	         -0.22461865	         -7.85641087	         -8.19159271	         14.28795472	         20.81571528	        -12.66562736	         -2.29032166	         -8.46247711	          0.03114957	          0.18604135	          0.01223197	          0.00999999	          0.24075487	          0.09049542	          0.01994129	          0.01187887	          0.10292359	          0.02061459	          0.09519912	          0.00999999	          0.01221958	          0.37298837	          0.02105674	          0.00999999	          0.00999999	          0.04971092	          0.00999999	          0.05030123	          0.26401291	          0.01209175	          0.01221957	          0.00999999	          0.00999999	          0.24571652	          0.26395446	          0.00999999	
          0.05327008	         -1.53662762	         -0.01493400	          5.69981621	          0.06088677	          0.87683986	         -0.00673782	         27.48849155	         -1.15987804	         -5.97393902	        -15.40691322	          2.91870961	          0.19508493	        -14.20265413	         -0.51730022	         -8.63943557	         -9.32138980	         14.01061425	         22.38543213	        -12.10398270	         -1.37044815	         -8.49918611	          0.02549151	          0.15224848	          0.01001014	          0.01745234	          0.20262398	          0.09285832	          0.01631912	          0.01128716	          0.08422837	          0.01687012	          0.17801706	          0.00999999	          0.00999999	          0.39617325	          0.03255599	          0.00999999	          0.00999999	          0.04068134	          0.00999999	          0.05945474	          0.21605715	          0.01565699	          0.00999999	          0.00999999	          0.00999999	          0.20108415	          0.25301527	          0.00999999	
